<svg xmlns="http://www.w3.org/2000/svg" viewBox="0 0 64 64"><circle cx="32" cy="32" r="32" fill="#fff"/><ellipse cx="32" cy="44" fill="#ccc" rx="15" ry="3"/><path fill="#999" d="M32 47c-8.3 0-15-1.3-15-3v1c0 1.7 6.7 3 15 3s15-1.3 15-3v-1c0 1.7-6.7 3-15 3"/><ellipse cx="32" cy="19" fill="#e6e6e6" rx="15" ry="3"/><path fill="#b3b3b3" d="M32 22c-8.3 0-15-1.3-15-3v1c0 1.7 6.7 3 15 3s15-1.3 15-3v-1c0 1.7-6.7 3-15 3"/><path fill="#4d4d4d" d="M18 21v22.3c0 1.6 6.3 2.8 14 2.8s14-1.3 14-2.8V21.1c-2.2 1.1-7.6 1.9-14 1.9s-11.8-.8-14-2"/><ellipse cx="32" cy="34.6" fill="#fff" rx="10" ry="8"/><path fill="#787878" d="M37.2 35.3c0-.4.5-2.2 1-2.8.6-.6 0-1.1-.5-1.1-1.2 0-3.3 2.5-3.3 4 0 1.7 2 3.7 3.3 3.7.6 0 1.1-.5.6-1a5 5 0 0 1-1.1-2.8"/><path fill="#787878" d="M28.7 31.8c0-1.1.6-2.2 1.1-2.2 1.7 0 4.9 1.8 5.4 4.5.6 2.8-6.5-2.3-6.5-2.3m1.8 6.7c.6.5 1.7 1 2.8 1s-1.2-1.4-.6-2.1c.8-1-2.2 1-2.2 1z"/><path fill="#000" d="M26.2 37c.3-.8 0-1.4-.4-2-.5-.6 1.4-.7 2 .1s2 2.3.8 2.3a10 10 0 0 1-2.4-.4"/><path fill="#999" d="M25.5 35.1c.3.3 2.6 1.6 2.6 1.9s-.8 0-1.1-.1l-.9-.2c-.3.1-.2.4 0 .6.5 1 2.6 1.7 4.4 1.7 3 0 6.1-2.8 6.1-3.9s-3.4-3.8-6.5-3.8-4.6 2.2-4.6 3.8"/><path fill="#000" d="M28 32.8c.4 0 .7.3.7.7s-.3.7-.7.7a.7.7 0 0 1-.7-.7c0-.4.3-.7.7-.7"/><path fill="#575757" d="M31 37.5a.4.4 0 0 1-.4-.5c.6-1.2.8-2.1 0-3.4 0-.2 0-.4.2-.5s.4 0 .5.1c1 1.7.5 3 0 4.1a.4.4 0 0 1-.4.2z"/></svg>
